<svg version="1.1" id="Layer_1" xmlns="http://www.w3.org/2000/svg" xmlns:xlink="http://www.w3.org/1999/xlink" x="0px" y="0px"
	 width="100%" viewBox="0 0 998 941" enable-background="new 0 0 998 941" xml:space="preserve">
<path fill="#FFFFFF" opacity="1.000000" stroke="none" 
	d="
M246.000000,1.000000 
	C329.020905,1.000000 412.041779,1.000000 495.602600,1.463936 
	C496.147156,44.698780 496.166779,87.469696 496.152161,130.240601 
	C496.138397,170.513382 496.088593,210.786148 495.583313,251.031250 
	C412.046722,250.978867 328.981537,250.954147 245.952789,250.960266 
	C245.989197,250.991104 246.058182,251.057037 246.101410,250.586517 
	C246.148376,168.238617 246.152771,86.361244 246.149384,4.483881 
	C246.149338,3.322585 246.051956,2.161294 246.000000,1.000000 
z"/>
<path fill="#000000" opacity="1.000000" stroke="none" 
	d="
M496.054688,251.058929 
	C496.088593,210.786148 496.138397,170.513382 496.152161,130.240601 
	C496.166779,87.469696 496.147156,44.698780 496.071259,1.463936 
	C579.020874,1.000000 662.041809,1.000000 745.604004,1.463752 
	C746.150024,46.695694 746.169556,91.463890 746.155029,136.232071 
	C746.142578,174.508270 746.091125,212.784454 745.585510,251.030762 
	C662.047791,250.976868 578.981506,250.952881 495.950562,250.960938 
	C495.985870,250.992966 496.054688,251.058929 496.054688,251.058929 
z"/>
<path fill="#FFFFFF" opacity="1.000000" stroke="none" 
	d="
M746.056946,251.060654 
	C746.091125,212.784454 746.142578,174.508270 746.155029,136.232071 
	C746.169556,91.463890 746.150024,46.695694 746.072632,1.463752 
	C829.020874,1.000000 912.041809,1.000000 995.535522,1.463870 
	C996.000854,84.968063 995.993286,168.008377 995.518433,251.027832 
	C986.397095,251.005081 977.743042,251.003937 969.089050,251.001190 
	C894.698364,250.977585 820.307678,250.953690 745.952393,250.962097 
	C745.987793,250.994339 746.056946,251.060654 746.056946,251.060654 
z"/>
<path fill="#000000" opacity="1.000000" stroke="none" 
	d="
M245.531342,1.000000 
	C246.051956,2.161294 246.149338,3.322585 246.149384,4.483881 
	C246.152771,86.361244 246.148376,168.238617 245.629700,250.560150 
	C163.743149,251.002884 82.371574,251.001450 1.000000,251.000000 
	C1.000000,167.740356 1.000000,84.480728 1.000000,1.000000 
	C82.354095,1.000000 163.708389,1.000000 245.531342,1.000000 
z"/>
<path fill="#000000" opacity="1.000000" stroke="none" 
	d="
M1.000000,751.000000 
	C1.000000,667.979126 1.000000,584.958191 1.468657,501.468994 
	C83.304657,501.022156 164.672012,501.043671 246.010712,501.029175 
	C245.982071,500.993103 245.916000,500.928955 246.023804,501.391357 
	C246.142715,583.935547 246.154724,666.017395 246.154648,748.099182 
	C246.154633,749.089783 245.999100,750.080383 245.953232,751.037109 
	C245.990311,751.003174 246.059235,750.930115 245.587860,750.962524 
	C163.744308,750.996582 82.372154,750.998291 1.000000,751.000000 
z"/>
<path fill="#FFFFFF" opacity="1.000000" stroke="none" 
	d="
M246.039337,501.065216 
	C164.672012,501.043671 83.304657,501.022156 1.468657,501.000305 
	C1.000000,417.979095 1.000000,334.958221 1.000000,251.468658 
	C82.371574,251.001450 163.743149,251.002884 245.586456,251.030685 
	C246.058182,251.057037 245.989197,250.991104 246.062134,251.422409 
	C246.141968,315.614716 246.158127,379.375732 246.150070,443.136749 
	C246.147629,462.446228 246.078140,481.755737 246.039337,501.065216 
z"/>
<path fill="#000000" opacity="1.000000" stroke="none" 
	d="
M496.000000,942.000000 
	C412.979095,942.000000 329.958221,942.000000 246.539612,941.536011 
	C246.114349,877.691406 246.086792,814.310791 246.059235,750.930115 
	C246.059235,750.930115 245.990311,751.003174 246.426422,751.006104 
	C329.926666,750.985901 412.990784,750.962830 496.107208,751.409729 
	C496.157379,799.953003 496.167175,848.026367 496.146179,896.099670 
	C496.139526,911.399780 496.051025,926.699890 496.000000,942.000000 
z"/>
<path fill="#FFFFFF" opacity="1.000000" stroke="none" 
	d="
M496.468658,942.000000 
	C496.051025,926.699890 496.139526,911.399780 496.146179,896.099670 
	C496.167175,848.026367 496.157379,799.953003 496.072418,751.443115 
	C495.985321,751.006592 495.914368,751.071899 496.387756,751.043396 
	C579.926147,750.989441 662.991211,750.963989 746.101868,751.409180 
	C746.151855,803.945618 746.165649,856.011475 746.153137,908.077271 
	C746.150391,919.384827 746.053528,930.692444 746.000000,942.000000 
	C662.979126,942.000000 579.958191,942.000000 496.468658,942.000000 
z"/>
<path fill="#000000" opacity="1.000000" stroke="none" 
	d="
M746.468628,942.000000 
	C746.053528,930.692444 746.150391,919.384827 746.153137,908.077271 
	C746.165649,856.011475 746.151855,803.945618 746.067444,751.442383 
	C745.987366,751.004944 745.917236,751.069885 746.390320,751.040588 
	C829.904785,751.021545 912.946167,751.031738 996.052734,751.498901 
	C996.122681,787.039795 996.145752,822.123779 996.126465,857.207703 
	C996.110901,885.471802 996.044067,913.735901 996.000000,942.000000 
	C912.979126,942.000000 829.958191,942.000000 746.468628,942.000000 
z"/>
<path fill="#FFFFFF" opacity="1.000000" stroke="none" 
	d="
M245.587860,750.962524 
	C246.086792,814.310791 246.114349,877.691406 246.070953,941.536011 
	C164.415344,942.000000 82.830681,942.000000 1.000000,942.000000 
	C1.000000,878.645996 1.000000,815.291626 1.000000,751.468628 
	C82.372154,750.998291 163.744308,750.996582 245.587860,750.962524 
z"/>
<path fill="#ECECEC" opacity="1.000000" stroke="none" 
	d="
M996.500000,942.000000 
	C996.044067,913.735901 996.110901,885.471802 996.126465,857.207703 
	C996.145752,822.123779 996.122681,787.039795 996.062256,751.027649 
	C996.009216,670.064209 996.012695,590.028931 996.011780,509.993713 
	C996.011780,506.987518 995.968994,503.981323 996.027588,500.514221 
	C996.116150,419.210724 996.124451,338.368134 996.124451,257.525543 
	C996.124451,255.366592 996.033997,253.207657 995.985718,251.048706 
	C995.993286,168.008377 996.000854,84.968063 996.004211,1.463870 
	C997.654358,1.048076 999.871765,0.378559 999.024231,3.506568 
	C998.855957,4.127646 999.000000,4.833333 999.000000,5.500000 
	C999.000000,316.166656 999.004150,626.833313 998.858704,937.499939 
	C998.858093,938.788940 1001.328430,942.127441 996.500000,942.000000 
z"/>
<path fill="#000000" opacity="1.000000" stroke="none" 
	d="
M246.010712,501.029175 
	C246.078140,481.755737 246.147629,462.446228 246.150070,443.136749 
	C246.158127,379.375732 246.141968,315.614716 246.025726,251.391571 
	C328.981537,250.954147 412.046722,250.978867 495.583313,251.031250 
	C496.054688,251.058929 495.985870,250.992966 496.063660,251.422302 
	C496.145386,295.634369 496.163239,339.417084 496.148987,383.199829 
	C496.136200,422.486237 496.088135,461.772614 495.584167,501.031616 
	C412.047150,500.979095 328.981567,500.954010 245.916000,500.928955 
	C245.916000,500.928955 245.982071,500.993103 246.010712,501.029175 
z"/>
<path fill="#FFFFFF" opacity="1.000000" stroke="none" 
	d="
M496.055634,501.059021 
	C496.088135,461.772614 496.136200,422.486237 496.148987,383.199829 
	C496.163239,339.417084 496.145386,295.634369 496.028381,251.390259 
	C578.981506,250.952881 662.047791,250.976868 745.585510,251.030762 
	C746.056946,251.060654 745.987793,250.994339 746.060547,251.424362 
	C746.142334,305.957977 746.164551,360.061554 746.155090,414.165161 
	C746.150085,443.129791 746.090454,472.094391 745.584045,501.031555 
	C662.047119,500.979065 578.981628,500.954010 495.951416,500.960999 
	C495.986755,500.993073 496.055634,501.059021 496.055634,501.059021 
z"/>
<path fill="#000000" opacity="1.000000" stroke="none" 
	d="
M746.055542,501.059021 
	C746.090454,472.094391 746.150085,443.129791 746.155090,414.165161 
	C746.164551,360.061554 746.142334,305.957977 746.025146,251.392120 
	C820.307678,250.953690 894.698364,250.977585 969.089050,251.001190 
	C977.743042,251.003937 986.397095,251.005081 995.518433,251.027832 
	C996.033997,253.207657 996.124451,255.366592 996.124451,257.525543 
	C996.124451,338.368134 996.116150,419.210724 995.562500,500.526245 
	C911.982605,500.975800 828.949158,500.952393 745.951111,500.960999 
	C745.986511,500.993011 746.055542,501.059021 746.055542,501.059021 
z"/>
<path fill="#FFFFFF" opacity="1.000000" stroke="none" 
	d="
M246.023804,501.391357 
	C328.981567,500.954010 412.047150,500.979095 495.584167,501.031616 
	C496.055634,501.059021 495.986755,500.993073 496.061951,501.422974 
	C496.142242,583.602600 496.148407,665.352295 496.142456,747.102051 
	C496.142365,748.425354 495.993713,749.748596 495.914368,751.071899 
	C495.914368,751.071899 495.985321,751.006592 496.020111,750.973145 
	C412.990784,750.962830 329.926666,750.985901 246.389343,751.039978 
	C245.999100,750.080383 246.154633,749.089783 246.154648,748.099182 
	C246.154724,666.017395 246.142715,583.935547 246.023804,501.391357 
z"/>
<path fill="#000000" opacity="1.000000" stroke="none" 
	d="
M496.387756,751.043396 
	C495.993713,749.748596 496.142365,748.425354 496.142456,747.102051 
	C496.148407,665.352295 496.142242,583.602600 496.026642,501.390900 
	C578.981628,500.954010 662.047119,500.979065 745.584106,501.031555 
	C746.055542,501.059021 745.986511,500.993011 746.062683,501.422607 
	C746.143921,582.768738 746.150818,663.685303 746.144104,744.601868 
	C746.143921,746.757874 745.996155,748.913879 745.917236,751.069885 
	C745.917236,751.069885 745.987366,751.004944 746.021790,750.971741 
	C662.991211,750.963989 579.926147,750.989441 496.387756,751.043396 
z"/>
<path fill="#FFFFFF" opacity="1.000000" stroke="none" 
	d="
M746.390320,751.040588 
	C745.996155,748.913879 746.143921,746.757874 746.144104,744.601868 
	C746.150818,663.685303 746.143921,582.768738 746.027283,501.390594 
	C828.949158,500.952393 911.982605,500.975800 995.481079,500.987152 
	C995.968994,503.981323 996.011780,506.987518 996.011780,509.993713 
	C996.012695,590.028931 996.009216,670.064209 995.997070,750.570679 
	C912.946167,751.031738 829.904785,751.021545 746.390320,751.040588 
z"/>
</svg>